# xmcd
#
# Track frame offsets:
#	150
#	13110
#	25942
#	38710
#	52942
#	65065
#	82922
#	96890
#	111680
#	125635
#	140982
#	154340
#	168237
#	179180
#
# Disc length: 2551 seconds
#
# Revision: 0
# Processed by: cddbd v1.5.2PL0 Copyright (c) Steve Scherf et al.
# Submitted via: dBpowerAMP V4.0
#
DISCID=cc09f50e
DTITLE=Naldo Campos - Muy cordialmente mi voz y mis canciones
DYEAR=1900
DGENRE=
TTITLE0=tendras que recordame
TTITLE1=llorar por ti
TTITLE2=aunque nos digan amantes
TTITLE3=ingrata linda
TTITLE4=hola como estas
TTITLE5=mala conmigo
TTITLE6=por ti llorando
TTITLE7=luto en el alma
TTITLE8=ya no te quiero
TTITLE9=rompecabeza
TTITLE10=parece mentira
TTITLE11=compredeme
TTITLE12=borracho
TTITLE13=brindis por un amor
EXTD=
EXTT0=
EXTT1=
EXTT2=
EXTT3=
EXTT4=
EXTT5=
EXTT6=
EXTT7=
EXTT8=
EXTT9=
EXTT10=
EXTT11=
EXTT12=
EXTT13=
PLAYORDER=
